<svg width="20" height="20" viewBox="0 0 20 20" fill="none" xmlns="http://www.w3.org/2000/svg">
<path d="M16.4 1.59998H3.59998C2.49598 1.59998 1.59998 2.49598 1.59998 3.59998V16.4C1.59998 17.504 2.49598 18.4 3.59998 18.4H16.4C17.504 18.4 18.4 17.504 18.4 16.4V3.59998C18.4 2.49598 17.504 1.59998 16.4 1.59998ZM14.8 7.59998H14C13.144 7.59998 12.8 7.79998 12.8 8.39998V9.59998H14.8L14.4 11.6H12.8V17.6H10.8V11.6H9.19998V9.59998H10.8V8.39998C10.8 6.79998 11.6 5.59998 13.2 5.59998C14.36 5.59998 14.8 5.99998 14.8 5.99998V7.59998Z" fill="white"/>
</svg>
