<svg width="26" height="26" viewBox="0 0 26 26" fill="none" xmlns="http://www.w3.org/2000/svg">
<path d="M2.6 5.71997C1.16594 5.71997 0 6.88591 0 8.31997V16.64C0 18.074 1.16594 19.24 2.6 19.24H23.4C24.8341 19.24 26 18.074 26 16.64V8.31997C26 6.88591 24.8341 5.71997 23.4 5.71997H2.6ZM4.42 8.79122H6.0775V15.6975H4.42V8.79122ZM6.97125 8.79122H9.1L9.66875 12.0575L10.0425 8.79122H12.3175V15.6975H10.92V11.7975L10.1887 15.6975H9.14875L8.4825 11.7975V15.6975H6.97125V8.79122ZM17.7775 8.79122H19.5V10.3512C19.7072 10.144 20.1703 9.87997 20.6375 9.87997C21.1047 9.93278 21.7303 10.2476 21.6775 10.8712V14.8687C21.6775 15.1815 21.58 15.3948 21.32 15.5512C21.1128 15.602 20.9564 15.6487 20.54 15.6487C20.1236 15.6487 19.5061 15.3928 19.4025 15.34C19.2989 15.2872 19.1912 15.6975 19.1912 15.6975H17.7775V8.79122ZM13.2112 8.83997H15.08C16.2236 8.83997 16.4897 8.94153 16.8025 9.14872C17.1153 9.35591 17.2575 9.66466 17.2575 10.2375V14.3975C17.2575 14.8139 17.0625 15.1287 16.8025 15.3887C16.5425 15.6487 16.1728 15.7625 15.08 15.7625H13.2112V8.83997ZM14.8687 9.87997V14.5112C15.1287 14.5112 15.5025 14.564 15.5025 14.2512V10.1887C15.5025 9.82513 15.1816 9.87997 14.8687 9.87997ZM19.76 10.7575C19.6036 10.7575 19.5 10.8611 19.5 11.0175V14.5112C19.5 14.7184 19.6036 14.82 19.76 14.82C19.9164 14.82 20.02 14.6676 20.02 14.5112L19.9712 11.0175C19.9712 10.8611 19.9164 10.7575 19.76 10.7575Z" fill="white"/>
</svg>
