<svg width="20" height="20" viewBox="0 0 20 20" fill="none" xmlns="http://www.w3.org/2000/svg">
<path d="M14.8 1.60156C13.8781 1.60151 12.9559 1.95289 12.2539 2.65469L10.2539 4.65469C9.25711 5.65149 8.97221 7.09091 9.39141 8.34531L10.8281 6.90859C10.8881 6.49779 11.0696 6.10154 11.3852 5.78594L13.3852 3.78594C13.7752 3.39634 14.288 3.20078 14.8 3.20078C15.312 3.20078 15.8245 3.39594 16.2141 3.78594C16.9937 4.56594 16.9937 5.83446 16.2141 6.61406L14.2141 8.61406C13.8985 8.92966 13.5026 9.11069 13.0914 9.17109L11.6539 10.6086C12.0251 10.7326 12.4116 10.7984 12.7992 10.7984C13.7212 10.7984 14.6433 10.4473 15.3453 9.74531L17.3453 7.74531C18.7493 6.34171 18.7489 4.05829 17.3453 2.65469C16.6433 1.95309 15.7219 1.60161 14.8 1.60156ZM12.3844 6.79219C12.1765 6.79838 11.9793 6.88524 11.8344 7.03437L7.03438 11.8344C6.9576 11.9081 6.8963 11.9964 6.85407 12.0941C6.81184 12.1918 6.78953 12.2969 6.78845 12.4034C6.78737 12.5098 6.80753 12.6154 6.84776 12.7139C6.88799 12.8125 6.94748 12.902 7.02275 12.9773C7.09801 13.0525 7.18753 13.112 7.28608 13.1522C7.38462 13.1925 7.4902 13.2126 7.59663 13.2116C7.70306 13.2105 7.80821 13.1882 7.90591 13.1459C8.00362 13.1037 8.09191 13.0424 8.16563 12.9656L12.9656 8.16562C13.0812 8.05325 13.1602 7.90858 13.1922 7.75057C13.2241 7.59255 13.2076 7.42856 13.1448 7.28009C13.0819 7.13163 12.9757 7.0056 12.84 6.91854C12.7043 6.83148 12.5455 6.78743 12.3844 6.79219V6.79219ZM7.37969 9.20937C6.39886 9.15946 5.40259 9.50631 4.65469 10.2539L2.65469 12.2539C1.25109 13.6575 1.25109 15.9417 2.65469 17.3453C3.35669 18.0469 4.2784 18.3977 5.2 18.3977C6.1216 18.3977 7.04331 18.0465 7.74531 17.3445L9.74531 15.3445C10.7421 14.3477 11.0278 12.9083 10.6086 11.6539L9.1711 13.0914C9.1111 13.5022 8.92966 13.8985 8.61406 14.2141L6.61406 16.2141C5.83446 16.9941 4.56554 16.9941 3.78594 16.2141C3.00634 15.4341 3.00634 14.1655 3.78594 13.3859L5.78594 11.3859C6.10154 11.0703 6.4978 10.8885 6.9086 10.8281L8.34531 9.39141C8.03171 9.28661 7.70663 9.22601 7.37969 9.20937Z" fill="white"/>
</svg>
