<svg width="20" height="20" viewBox="0 0 20 20" fill="none" xmlns="http://www.w3.org/2000/svg">
<g clip-path="url(#clip0_434_72)">
<path d="M10 0.400024C9.91938 0.400094 9.84066 0.424524 9.77416 0.470112C9.70766 0.5157 9.65649 0.580317 9.62735 0.655493L7.16094 7.01409L0.379694 7.36018C0.298973 7.36427 0.221382 7.39271 0.157142 7.44176C0.092903 7.49081 0.0450284 7.55817 0.0198247 7.63496C-0.00537896 7.71176 -0.00672941 7.79439 0.0159512 7.87197C0.0386319 7.94954 0.0842797 8.01843 0.146882 8.06956L5.42735 12.3867L3.69298 18.9375C3.67227 19.0155 3.67563 19.0979 3.70261 19.174C3.7296 19.25 3.77895 19.3161 3.84418 19.3636C3.90941 19.4111 3.98748 19.4377 4.06813 19.4401C4.14878 19.4424 4.22825 19.4203 4.2961 19.3766L10 15.7156L15.7039 19.3766C15.7718 19.4203 15.8512 19.4424 15.9319 19.4401C16.0125 19.4377 16.0906 19.4111 16.1558 19.3636C16.2211 19.3161 16.2704 19.25 16.2974 19.174C16.3244 19.0979 16.3277 19.0155 16.307 18.9375L14.5727 12.3867L19.8531 8.06956C19.9157 8.01843 19.9614 7.94954 19.9841 7.87197C20.0067 7.79439 20.0054 7.71176 19.9802 7.63496C19.955 7.55817 19.9071 7.49081 19.8429 7.44176C19.7786 7.39271 19.701 7.36427 19.6203 7.36018L12.8391 7.01409L10.3727 0.655493C10.3435 0.580317 10.2924 0.5157 10.2259 0.470112C10.1594 0.424524 10.0806 0.400094 10 0.400024V0.400024ZM10 1.90549L12.1867 7.54456C12.2147 7.61657 12.2629 7.67895 12.3256 7.72415C12.3883 7.76934 12.4627 7.79543 12.5399 7.79924L18.5438 8.10627L13.8672 11.9305C13.8078 11.9791 13.7636 12.0437 13.7399 12.1167C13.7162 12.1897 13.714 12.268 13.7336 12.3422L15.2703 18.1477L10.2164 14.9031C10.1519 14.8616 10.0767 14.8396 10 14.8396C9.92327 14.8396 9.84814 14.8616 9.7836 14.9031L4.72969 18.1477L6.26641 12.3422C6.28599 12.268 6.2838 12.1897 6.26011 12.1167C6.23642 12.0437 6.19224 11.9791 6.13282 11.9305L1.45626 8.10627L7.46016 7.79924C7.53733 7.79543 7.61174 7.76934 7.67441 7.72415C7.73707 7.67895 7.78531 7.61657 7.81329 7.54456L10 1.90549Z" fill="#C1C0C0"/>
</g>
<defs>
<clipPath id="clip0_434_72">
<rect width="20" height="20" fill="white"/>
</clipPath>
</defs>
</svg>
