<svg width="20" height="20" viewBox="0 0 20 20" fill="none" xmlns="http://www.w3.org/2000/svg">
<path d="M8.40001 0.799988V1.99999H9.20001V2.43905C4.94013 2.84296 1.60001 6.43552 1.60001 10.8C1.60001 15.4344 5.36555 19.2 10 19.2C14.6345 19.2 18.4 15.4344 18.4 10.8C18.4 6.43552 15.0599 2.84296 10.8 2.43905V1.99999H11.6V0.799988H8.40001ZM16.0945 2.05858L15.2922 2.86093L17.1383 4.70702L17.9406 3.90468L16.0945 2.05858ZM10 3.19999C14.2021 3.19999 17.6 6.59789 17.6 10.8C17.6 15.0021 14.2021 18.4 10 18.4C5.7979 18.4 2.40001 15.0021 2.40001 10.8C2.40001 6.59789 5.7979 3.19999 10 3.19999ZM5.9961 6.39608C5.91653 6.3961 5.83877 6.41985 5.77276 6.4643C5.70676 6.50874 5.65551 6.57186 5.62557 6.64559C5.59562 6.71931 5.58835 6.80029 5.60467 6.87818C5.62099 6.95606 5.66017 7.0273 5.71719 7.0828L9.22813 10.5937C9.20981 10.661 9.20036 10.7303 9.20001 10.8C9.20001 11.0122 9.28429 11.2156 9.43432 11.3657C9.58435 11.5157 9.78783 11.6 10 11.6C10.0699 11.6 10.1395 11.5908 10.207 11.5726L10.9172 12.2828C10.9541 12.3212 10.9982 12.3518 11.0471 12.373C11.0959 12.3941 11.1485 12.4052 11.2017 12.4058C11.2549 12.4063 11.3077 12.3962 11.357 12.3761C11.4062 12.356 11.451 12.3262 11.4886 12.2886C11.5263 12.251 11.556 12.2062 11.5761 12.157C11.5962 12.1077 11.6063 12.0549 11.6058 12.0017C11.6052 11.9485 11.5941 11.8959 11.573 11.847C11.5519 11.7982 11.5212 11.754 11.4828 11.7172L10.7719 11.0062C10.7902 10.939 10.7997 10.8697 10.8 10.8C10.8 10.5878 10.7157 10.3843 10.5657 10.2343C10.4157 10.0843 10.2122 9.99999 10 9.99999C9.9301 10 9.86049 10.0092 9.79298 10.0273L6.28282 6.51718C6.24554 6.47886 6.20097 6.4484 6.15172 6.4276C6.10247 6.4068 6.04956 6.39608 5.9961 6.39608V6.39608Z" fill="#C1C0C0"/>
</svg>
