<svg width="20" height="20" viewBox="0 0 20 20" fill="none" xmlns="http://www.w3.org/2000/svg">
<path d="M14.8 1.20001H5.20001C2.99441 1.20001 1.20001 2.99481 1.20001 5.20041V14.7992C1.20001 17.0052 2.99441 18.8 5.20001 18.8H14.8C17.0056 18.8 18.8 17.0052 18.8 14.7996V5.20001C18.8 2.99441 17.0056 1.20001 14.8 1.20001ZM14.4952 8.19201C14.4992 8.28681 14.5016 8.38281 14.5016 8.47961C14.5016 11.4148 12.2724 14.8 8.19641 14.8C6.94521 14.8 5.78001 14.4324 4.80001 13.8016C4.97321 13.8224 5.14881 13.8324 5.32841 13.8324C6.36681 13.8324 7.32241 13.478 8.08001 12.882C7.11041 12.8644 6.29281 12.2208 6.01001 11.3392C6.14561 11.3652 6.28441 11.3792 6.42761 11.3792C6.62961 11.3792 6.82561 11.3524 7.01081 11.3008C5.99801 11.096 5.23441 10.1992 5.23441 9.12241C5.23441 9.11281 5.23441 9.10361 5.23441 9.09441C5.53321 9.26081 5.87441 9.36121 6.23801 9.37281C5.64281 8.97361 5.25241 8.29441 5.25241 7.52361C5.25241 7.11641 5.36121 6.73521 5.55201 6.40641C6.64521 7.75041 8.27801 8.63481 10.1192 8.72761C10.0812 8.56481 10.0612 8.39561 10.0612 8.22161C10.0612 6.99481 11.0532 6.00001 12.2772 6.00001C12.9144 6.00001 13.49 6.26961 13.894 6.70161C14.3984 6.60201 14.8732 6.41721 15.3012 6.16281C15.136 6.68081 14.7844 7.11641 14.3264 7.39161C14.7752 7.33721 15.2016 7.21841 15.5996 7.04161C15.3032 7.48721 14.9276 7.87881 14.4952 8.19201Z" fill="white"/>
</svg>
