<?xml version="1.0" encoding="UTF-8"?><svg id="Layer_1" xmlns="http://www.w3.org/2000/svg" viewBox="0 0 1004.95 248.78"><path d="M116.26,138.18c9.3-8.52,18.69-16.93,27.87-25.58,12.83-12.09,25.67-24.18,38.13-36.64,4.84-4.85,8.66-10.72,12.95-16.12,.68-.85,1.27-1.88,2.15-2.43,.62-.38,2.03-.46,2.45-.04,9.69,9.84,19.28,19.77,29.1,29.89-28.75,27.45-55.02,56.77-76.57,90.05,.17,.22,.35,.43,.52,.65,.74-.5,1.57-.91,2.21-1.51,11.3-10.67,22.88-21.05,33.77-32.12,13.19-13.4,25.84-27.35,38.61-41.16,2.2-2.37,3.9-5.22,5.69-7.95,8.57-13.04,17.06-26.12,25.65-39.14,1.14-1.73,2.68-3.2,4.07-4.75,.28-.32,.74-.48,.97-.62,5.31,1.75,8.1,6.25,11.67,9.79,5.36,5.31,10.59,10.75,15.73,16.27,1.53,1.64,2.71,3.68,3.73,5.7,.28,.56-.4,1.86-.96,2.56-3.67,4.63-7.42,9.18-11.15,13.77-.84,1.03-1.65,2.08-2.08,3.56,.75-.57,1.48-1.15,2.25-1.7,10.76-7.76,21.41-15.67,32.32-23.2,6.15-4.25,6.34-3.97,11.44,1.3,4.74,4.9,9.57,9.72,14.18,14.74,1.62,1.77,2.7,4.03,4.51,6.81,.08-.17,.26-1.05,.78-1.64,5.68-6.38,11.34-12.77,17.17-19.01,1.71-1.83,3.85-3.3,5.95-4.71,1.59-1.07,3.09-.8,4.55,.77,5.49,5.92,11.12,11.72,16.87,17.76,2.48-2.57,4.63-4.89,6.87-7.11,8.92-8.85,17.98-17.57,29.1-23.64,3.69-2.01,7.82-3.4,11.9-4.45,4.51-1.16,8.59,.17,11.86,3.73,2.95,3.21,5.9,6.45,9.12,9.39,3.86,3.51,4.49,7.66,3.33,12.41-1.75,7.17-5.85,13.09-10.29,18.73-9.67,12.27-21.13,22.5-35.08,29.74-6.69,3.47-13.76,5.63-21.36,5.94-.85,.03-2.08,.53-2.46,1.19-5.14,8.9-9.8,18.03-12.73,27.95-.02,.07,.05,.16,.21,.65,1.26-.65,2.52-1.23,3.71-1.92,11.09-6.36,20.95-14.41,30.67-22.61,35.11-29.6,68.41-61.11,99.4-95.02,5.64-6.17,11.21-12.4,16.83-18.58,.78-.85,1.69-1.58,2.64-2.46,.75,.69,1.36,1.2,1.91,1.77,9.75,10.05,19.43,20.16,29.28,30.11,1.93,1.95,1.68,3.19-.05,4.9-19.7,19.53-36.45,41.46-52.19,64.21-.57,.82-1.09,1.66-2.03,3.1,1-.5,1.46-.63,1.79-.9,26.42-21.74,54.17-41.64,83.01-60.02,1.99-1.27,3.83-2.8,5.88-3.94,.66-.37,2.15-.26,2.65,.25,5.84,5.86,11.56,11.83,17.3,17.79,1.64,1.71,1.42,3.74,.48,5.57-2.2,4.27-4.51,8.5-6.95,12.64-2.03,3.44-4.34,6.72-6.5,10.08-.47,.73-.87,1.5-.97,2.58,.58-.32,1.19-.59,1.72-.98,18.34-13.29,37.22-25.73,56.84-37.07,3.76-2.17,7.27-4.79,10.82-7.31,1.17-.84,1.97-.99,3.03,.11,6.86,7.14,13.77,14.25,20.66,21.37,1.92,1.99,2.37,4.16,.76,6.59-1.75,2.65-3.47,5.32-5.21,7.98-.47,.72-.95,1.43-1.08,2.49,.62-.43,1.28-.82,1.86-1.3,22.3-18.5,46.25-34.62,70.95-49.7,3.61-2.2,6.71-5.23,10.08-7.84,2.87-2.23,5.81-4.36,8.66-6.61,2.04-1.61,3.65-1.31,5.41,.53,6.71,7.04,13.52,13.99,20.26,21,.8,.83,1.41,1.84,2.43,2.58,2.05-4.74,2.66-9.36,1.74-14-.3-1.5-2.08-2.68-3.04-4.1-.35-.52-.27-1.33-.39-2.01,.6,.17,1.4,.16,1.79,.55,11.41,11.42,22.83,22.83,34.08,34.4,1.18,1.21,1.59,3.34,1.95,5.12,.3,1.55,.02,3.21-.02,5.72,1.4-1.35,2.18-2.14,3.01-2.89,9.75-8.85,19.4-17.83,29.31-26.5,5.39-4.72,5.62-4.53,10.58,.43,3.85,3.85,7.52,7.89,11.43,11.69,1.51,1.47,1.61,2.61,.29,4.12-4.48,5.14-8.88,10.34-13.41,15.43-6.04,6.79-12.18,13.49-18.27,20.24-.83,.92-1.62,1.88-2.09,3.31,.91-.47,1.85-.89,2.73-1.41,20-11.71,40.55-22.36,61.76-31.72,7.99-3.53,16.26-6.14,25.12-6.48,3.1-.12,5.63,.77,7.81,3.03,10.09,10.48,20.26,20.87,30.33,31.37,1.63,1.69,2.98,3.66,4.33,5.6,1.02,1.47,.93,1.53-1.61,3.54-1.59-1.95-3.3-3.94-4.88-6.03-1.54-2.04-3.53-2.78-5.95-2.28-4.96,1.02-9.95,1.92-14.84,3.23-40.83,10.9-78.4,29.43-115.36,49.41-4.07,2.2-8.23,4.25-12.44,6.19-2.04,.95-4.24,1.62-6.43,2.18-3.15,.81-5.81-.08-8.12-2.49-6.96-7.28-14.02-14.45-21.04-21.66-6.13,5.36-12.18,10.84-18.45,16.07-10.13,8.45-20.71,16.29-32.26,22.71-6.61,3.67-13.41,6.9-21.03,7.96-5.59,.78-10.34-.58-14.31-4.82-5.71-6.11-11.5-12.15-17.47-18.01-3.98-3.9-5.35-8.48-4.93-13.83,.6-7.63,3.17-14.7,6.08-21.68,.62-1.48,1.26-2.95,1.43-4.86-.79,.63-1.61,1.22-2.36,1.89-12.62,11.24-25.19,22.55-37.89,33.7-2.91,2.56-6.16,4.82-9.49,6.8-3.39,2.02-4.95,1.57-7.69-1.24-6.59-6.78-13.06-13.68-19.78-20.33-3.45-3.41-4.54-7.4-3.84-11.91,.61-3.89,1.71-7.71,2.68-11.92-.92,.63-1.68,1.06-2.34,1.6-15.8,12.83-31.57,25.68-47.38,38.49-1.97,1.6-4.02,3.11-6.12,4.54-1.53,1.04-2.93,.89-4.34-.58-6.14-6.46-12.34-12.85-18.58-19.21-1.87-1.9-2.31-4.26-1.82-6.55,1.19-5.56,2.36-11.17,4.26-16.51,1.97-5.53,4.79-10.75,7.51-16.7-1.37,.9-2.38,1.51-3.33,2.19-20.24,14.39-39.72,29.73-58.7,45.74-4.02,3.39-8.25,6.55-12.53,9.63-3.22,2.31-3.79,2.13-6.45-.61-3.29-3.39-6.46-6.92-9.9-10.15-2.68-2.51-3.54-5.35-2.88-8.84,.22-1.14,.27-2.31,.47-4.16-22.47,17.54-43.62,35.96-70.01,46.61,4.95-.31,9.89-.69,14.84-.92,23.45-1.11,46.88-2.51,70.34-3.16,21.47-.6,42.97-.92,64.43-.36,24.04,.63,47.91,3.8,71.62,7.84,10.9,1.86,21.95,3.55,32.48,6.78,19.34,5.93,36.1,16.42,49.68,31.7,2.69,3.02,5.85,5.62,8.79,8.42-.23,.37-.46,.73-.7,1.1-.76-.07-1.63,.08-2.27-.24-3.18-1.55-6.35-3.14-9.44-4.85-12.92-7.18-26.98-10.53-41.46-12.63-24.44-3.55-48.94-6.69-73.63-7.48-17.3-.56-34.64-.62-51.93-.04-37.44,1.26-74.88,2.73-112.29,4.77-30.07,1.64-60.09,4.14-90.12,6.43-23.8,1.81-47.56,4.69-71.39,5.61-25.83,1-51.74,.62-77.6,.17-13.13-.23-26.36-1.2-39.12-4.83-11.81-3.36-22.31-9.18-31.05-17.95-.62-.63-1.19-1.31-2.23-2.46,1.05,.22,1.54,.21,1.91,.42,9.76,5.39,20.32,8.12,31.37,7.98,16.71-.22,33.43-.69,50.1-1.8,17.76-1.17,35.54-2.69,53.19-5,19.17-2.5,38.15-6.48,57.32-9.09,23.91-3.26,47.92-5.79,71.89-8.61,3.39-.4,6.8-.6,10.3-1.13-5.2-1.98-8.38-6.26-12.02-9.96-4.84-4.93-9.5-10.04-14.47-14.84-5.35-5.15-7.23-11.41-5.69-18.39,1.3-5.9,3.56-11.58,5.42-17.35,.27-.84,.69-1.63,.63-2.76-.7,.72-1.41,1.44-2.11,2.16-18.62,19.41-37.15,38.9-55.93,58.15-3.89,3.99-8.55,7.33-13.2,10.46-4.19,2.83-5.7,2.34-9.2-1.26-5.82-6-11.59-12.06-17.48-17.99-2.01-2.02-3.26-4.35-2.72-7.07,1.06-5.4,1.78-11.03,3.93-16.01,3.55-8.22,8.12-16.01,12.27-23.97,.41-.78,.88-1.52,.97-2.7-.67,.48-1.4,.89-2,1.44-14.83,13.55-29.62,27.13-44.47,40.66-3.56,3.24-7.24,6.35-10.89,9.48-1.54,1.32-2.87,1.35-4.41-.34-3.41-3.77-6.95-7.44-10.61-10.98-3.53-3.42-6.78-6.81-4.3-12.52-.25-.03-.5-.06-.75-.08-.8,.66-1.6,1.31-2.4,1.97-9.92,8.25-19.7,16.66-29.81,24.68-4.9,3.88-10.35,7.05-16.59,8.57-3.21,.78-5.83,.17-8.12-2.34-2.93-3.23-5.88-6.48-9.13-9.37-4.6-4.07-5.31-9.08-4.25-14.64,.54-2.83,1.34-5.61,2.23-9.24-1.44,1.1-2.33,1.75-3.19,2.44-19.91,15.88-40.25,31.14-62.52,43.61-9.84,5.51-19.93,10.49-30.94,13.3-2.1,.54-4.28,.78-6.44,1-3.67,.37-6.68-.88-9.25-3.63-5.02-5.39-10.16-10.65-15.33-15.89C1.51,201.59,.14,197.98,.02,193.82c-.2-6.57,1.5-12.78,3.79-18.84,8.28-21.97,20.66-41.62,34.69-60.26,22.19-29.49,47.87-55.6,77.28-77.93,5.82-4.42,12.34-7.95,18.69-11.64,2.23-1.3,4.86-1.98,7.38-2.68,2.43-.68,4.61,.02,6.42,1.89,9.53,9.88,19.07,19.75,28.65,29.58,1.82,1.87,1.97,3.96,.81,5.98-1.93,3.38-4.01,6.7-6.3,9.85-17.25,23.67-35.18,46.78-55.16,68.41Zm-21.13,18.13c-2.4,1.22-4.11,.69-5.78-1.32-1.97-2.36-4.09-4.64-6.42-6.64-2.2-1.88-1.87-3.41-.42-5.53,8.56-12.53,17.01-25.12,25.5-37.7,.55-.82,1.02-1.69,1.53-2.53-20.02,14.39-76.11,82.97-81.81,99.71,25.5-11.41,46.69-28.24,67.4-45.99Zm638.4,9.94c1.61-1.15,2.69-1.8,3.64-2.62,9.23-7.92,18.78-15.51,27.58-23.87,16.09-15.29,30.98-31.7,41.84-51.28,3.27-5.89,5.85-12.16,8.93-18.66-16.11,3.05-72.51,69.58-81.99,96.43ZM449.09,75.72c-17.51,10.39-29.55,26.09-41.09,42.26,17.69-10.22,32.43-23.3,41.09-42.26Z"/><path d="M210.29,24.66c.56-.72,1.16-1.63,1.9-2.41,6.52-6.83,13.05-13.64,19.6-20.43,2.28-2.36,4.11-2.46,6.34-.17,9.13,9.36,18.23,18.77,27.29,28.19,1.94,2.01,1.82,4.16-.1,6.17-6.35,6.61-12.69,13.23-19.07,19.82-.99,1.02-2.11,1.91-3.09,2.78-11.06-11.43-21.91-22.63-32.88-33.96Z"/></svg>