<svg width="100%" height="100%" viewBox="0 0 393 443" version="1.1" xmlns="http://www.w3.org/2000/svg" xmlns:xlink="http://www.w3.org/1999/xlink" xml:space="preserve" style="fill-rule:evenodd;clip-rule:evenodd;stroke-linejoin:round;stroke-miterlimit:2;">
    <g id="Layer_1-2">
        <path d="M239.28,24.27C278.22,24.27 319.98,31.61 339.17,35.56L344.24,0L347.06,0L370.76,147.85L367.94,147.85C338.03,88.6 290.62,30.47 238.14,30.47C185.66,30.47 130.35,87.47 130.35,209.36C130.35,346.49 197.51,436.79 262.97,436.79C318.28,436.79 369.07,341.98 389.38,277.08L392.77,277.08L379.79,426.63C358.34,431.71 309.81,442.99 255.07,442.99C89.73,443 0,358.91 0,240.41C0,121.91 103.27,24.27 239.28,24.27Z" style="fill:white;fill-rule:nonzero;"/>
    </g>
</svg>
